<svg width="54" height="54" viewBox="0 0 54 54" fill="none" xmlns="http://www.w3.org/2000/svg">
<path d="M38.5714 0H15.4286C6.90761 0 0 6.90761 0 15.4286V38.5714C0 47.0924 6.90761 54 15.4286 54H38.5714C47.0924 54 54 47.0924 54 38.5714V15.4286C54 6.90761 47.0924 0 38.5714 0Z" fill="#8E44AD"/>
<g transform="translate(27,27)">
<circle cx="-5" cy="-6" r="4.5" fill="#fff" opacity="0.7"/>
<circle cx="5" cy="-6" r="4.5" fill="#fff" opacity="0.7"/>
<path d="M-13,10 Q-13,2 -5,2 Q0,2 0,6" fill="#fff" opacity="0.5"/>
<path d="M13,10 Q13,2 5,2 Q0,2 0,6" fill="#fff" opacity="0.5"/>
</g>
</svg>
