<svg width="54" height="54" viewBox="0 0 54 54" fill="none" xmlns="http://www.w3.org/2000/svg">
<path d="M38.5714 0H15.4286C6.90761 0 0 6.90761 0 15.4286V38.5714C0 47.0924 6.90761 54 15.4286 54H38.5714C47.0924 54 54 47.0924 54 38.5714V15.4286C54 6.90761 47.0924 0 38.5714 0Z" fill="#2980B9"/>
<g transform="translate(27,27)">
<rect x="-12" y="-14" width="24" height="28" rx="2" stroke="#fff" stroke-width="2" fill="none"/>
<line x1="-8" y1="-8" x2="8" y2="-8" stroke="#fff" stroke-width="1.5" stroke-linecap="round"/>
<line x1="-8" y1="-3" x2="4" y2="-3" stroke="#fff" stroke-width="1.5" stroke-linecap="round" opacity="0.6"/>
<line x1="-8" y1="2" x2="8" y2="2" stroke="#fff" stroke-width="1.5" stroke-linecap="round"/>
<line x1="-8" y1="7" x2="2" y2="7" stroke="#fff" stroke-width="1.5" stroke-linecap="round" opacity="0.6"/>
<circle cx="7" cy="9" r="3" fill="#fff" opacity="0.7"/>
<text x="7" y="11" text-anchor="middle" font-family="Arial,sans-serif" font-size="5" font-weight="bold" fill="#2980B9">%</text>
</g>
</svg>
